<?xml version="1.0" standalone="no"?>
<!DOCTYPE svg PUBLIC "-//W3C//DTD SVG 20010904//EN"
 "http://www.w3.org/TR/2001/REC-SVG-20010904/DTD/svg10.dtd">
<svg version="1.0" xmlns="http://www.w3.org/2000/svg"
 width="200.000000pt" height="200.000000pt" viewBox="0 0 200.000000 200.000000"
 preserveAspectRatio="xMidYMid meet">
<metadata>
Created by potrace 1.10, written by Peter Selinger 2001-2011
</metadata>
<g transform="translate(0.000000,200.000000) scale(0.100000,-0.100000)"
fill="#000000" stroke="none">
<path d="M720 1776 c-75 -16 -154 -61 -184 -105 -38 -55 -49 -117 -44 -244 4
-95 9 -123 34 -182 l30 -70 118 -3 c76 -2 123 1 130 8 6 6 11 35 12 65 0 43 5
60 24 80 23 25 26 25 176 25 189 0 194 -3 203 -106 l6 -69 126 -3 125 -3 27
66 c56 135 60 302 11 402 -46 96 -156 153 -293 153 -52 0 -147 -15 -160 -26
-2 -2 25 -30 59 -62 63 -61 72 -84 38 -106 -14 -8 -28 0 -80 50 -121 116 -234
157 -358 130z m659 -63 c71 -35 107 -86 123 -171 15 -80 -2 -216 -34 -281
l-23 -46 -90 0 -90 0 -6 46 c-9 61 -23 86 -62 109 -28 17 -51 20 -185 20
l-152 0 -36 -32 c-26 -25 -38 -47 -47 -88 l-12 -55 -86 -3 c-61 -2 -89 1 -97
10 -5 7 -20 41 -31 75 -24 72 -29 229 -9 296 17 55 65 101 135 127 115 43 251
13 349 -78 64 -60 106 -92 121 -92 8 0 25 11 38 25 34 33 32 73 -5 120 -39 49
-28 58 69 51 53 -3 89 -12 130 -33z"/>
<path d="M980 1147 c0 -52 -2 -58 -17 -52 -35 15 -170 18 -209 5 -104 -33
-149 -106 -147 -240 1 -47 8 -107 17 -135 9 -28 16 -86 16 -130 1 -226 70
-395 162 -395 38 0 75 28 82 63 3 12 7 58 9 102 5 92 37 210 68 249 60 77 123
-9 149 -204 20 -148 49 -210 98 -210 85 0 138 114 161 350 6 61 20 128 32 160
17 41 22 78 23 146 1 84 -1 94 -29 139 -42 67 -100 97 -205 103 -69 4 -81 2
-86 -13 -13 -33 10 -50 77 -56 77 -8 106 -19 137 -52 48 -51 49 -136 4 -273
-11 -32 -23 -99 -27 -149 -8 -109 -19 -163 -47 -227 -34 -80 -41 -68 -67 107
-21 138 -49 212 -98 255 -63 56 -152 31 -201 -57 -32 -59 -62 -185 -62 -267 0
-96 -11 -110 -44 -60 -38 58 -56 143 -56 266 0 76 -5 121 -17 155 -25 68 -25
218 0 255 37 54 130 73 233 47 l44 -11 0 -52 -1 -51 -22 28 -23 27 -27 -28
-27 -28 64 -63 c75 -72 72 -72 154 11 l52 54 -25 24 -25 23 -25 -23 -25 -23 0
144 0 145 -35 0 -35 0 0 -59z m63 -279 c-21 -23 -36 -23 -59 3 -18 20 -18 21
6 39 25 18 25 18 47 -2 22 -20 22 -23 6 -40z"/>
</g>
</svg>
