<?xml version="1.0" encoding="utf-8"?>
<!-- Generator: Adobe Illustrator 22.1.0, SVG Export Plug-In . SVG Version: 6.00 Build 0)  -->
<svg version="1.1" id="Layer_1" xmlns="http://www.w3.org/2000/svg" xmlns:xlink="http://www.w3.org/1999/xlink" x="0px" y="0px"
	 viewBox="0 0 170.9 40.9" style="enable-background:new 0 0 170.9 40.9;" xml:space="preserve">
<style type="text/css">
	.st0{opacity:0.5;fill:#070101;enable-background:new    ;}
	.st1{opacity:0.75;fill:#070101;enable-background:new    ;}
	.st2{fill:#070101;}
</style>
<title>invisalign_logo_white</title>
<path class="st2" d="M151.4,13.4h3.1l0.1,1.3c0.9-1.1,2.2-1.7,3.6-1.7c3.4,0,5.3,2.1,5.3,5.8v8.6h-3.2v-8.6c0.1-1.5-1-2.9-2.6-3
	c-1.5-0.1-2.9,1-3,2.6c0,0.2,0,0.3,0,0.5v8.5h-3.2L151.4,13.4L151.4,13.4z M123.9,27.5h-3.3V7h3.3V27.5z M130.9,27.5h-3.3V13.4h3.3
	V27.5z M129.2,6.7c-1.1,0-2,0.9-2,2c0,1.1,0.9,2,2,2s2-0.9,2-2l0,0C131.2,7.5,130.3,6.6,129.2,6.7 M113.7,13.4h3.3v14.1h-3.2
	l-0.1-1.5c-1.2,1.2-2.7,1.8-4.4,1.9c-3.8,0-6.7-3.1-6.7-7.4c0-4.6,3.1-7.4,6.7-7.4c1.7,0,3.3,0.6,4.4,1.9L113.7,13.4z M106,20.4
	c0,2.7,1.7,4.5,4,4.5c2.1,0,4-1.5,4-4.5s-1.8-4.5-4-4.5C107.6,15.9,106,17.8,106,20.4 M144.6,20.4c0-2.9-1.9-4.5-4-4.5
	c-2.5,0-4,2-4,4.5s1.6,4.5,4,4.5C142.8,24.9,144.6,23.2,144.6,20.4 M147.7,26c0,6-3.5,8-7.7,8c-1.7,0-3.4-0.4-5-1.1l0.8-2.8
	c1.3,0.7,2.7,1.1,4.2,1.1c2.3,0.1,4.3-1.7,4.4-4c0-0.1,0-0.2,0-0.3v-1c-1.1,1.2-2.7,1.9-4.4,1.9c-3.8,0-6.7-3-6.7-7.4
	c0-4.2,2.7-7.4,6.7-7.4c1.7-0.1,3.3,0.6,4.4,1.9v-1.5h3.2L147.7,26L147.7,26z"/>
<path class="st2" d="M73.1,13.4l3.7,8.5l3.6-8.5H84l-7.3,15.1l-7.2-15.1H73.1z M91.3,24.2c1.1,0.6,2.4,1,3.7,1.1
	c1.6,0,2.3-0.7,2.3-1.6s-0.6-1.5-2.3-2.1c-2.8-0.9-3.9-2.4-3.9-4.1c0-2.5,2-4.5,5.3-4.5c1.3,0,2.6,0.3,3.8,0.9l-0.7,2.5
	c-0.9-0.5-1.9-0.8-3-0.8c-1.3,0-2.1,0.6-2.1,1.5s0.7,1.4,2.5,2c2.6,0.9,3.7,2.2,3.8,4.3c0,2.6-1.9,4.4-5.7,4.4c-1.5,0-3-0.3-4.3-1
	L91.3,24.2z M53,27.5h-3.2V13.4H53V27.5z M51.4,6.7c-1.1,0-2,0.9-2,2c0,1.1,0.9,2,2,2s2-0.9,2-2l0,0C53.4,7.5,52.5,6.6,51.4,6.7
	 M88.4,27.5h-3.2V13.4h3.2L88.4,27.5L88.4,27.5z M86.8,6.7c-1.1,0-2,0.9-2,2c0,1.1,0.9,2,2,2s2-0.9,2-2l0,0
	C88.8,7.5,87.9,6.6,86.8,6.7 M56.7,13.4h3.1l0,1.3c0.9-1.1,2.2-1.7,3.7-1.7c3.2,0,5.3,2.1,5.3,5.8v8.6h-3.2V19
	c0.2-1.5-0.9-3-2.4-3.2c-1.5-0.2-3,0.9-3.2,2.4c0,0.2,0,0.5,0,0.7v8.5h-3.3V13.4z"/>
<path class="st0" d="M24.9,12.6c1.4,0.8,2.6,2,3.4,3.4c-1.5,0.9-3.2,1.5-4.9,1.5C23.4,15.8,23.9,14,24.9,12.6 M28.3,24.8
	c-1.5-0.9-3.2-1.5-5-1.5c0.1,1.8,0.6,3.5,1.5,5C26.3,27.5,27.5,26.3,28.3,24.8 M24.5,20.4c1.3,1.2,2.9,2,4.6,2.4
	c0.4-1.6,0.4-3.2,0-4.8C27.4,18.4,25.8,19.3,24.5,20.4 M16.3,20.4c-1.3-1.2-2.9-2-4.6-2.4c-0.4,1.6-0.4,3.2,0,4.8
	C13.5,22.4,15,21.6,16.3,20.4 M17.5,23.3c-1.8,0.1-3.5,0.6-4.9,1.5c0.8,1.4,2,2.6,3.4,3.4C16.9,26.8,17.5,25.1,17.5,23.3 M17.5,17.5
	c-0.1-1.8-0.6-3.5-1.6-5c-1.4,0.8-2.6,2.1-3.4,3.5C14.1,16.9,15.8,17.5,17.5,17.5 M20.4,24.5c-1.2,1.3-2,2.9-2.4,4.6
	c1.6,0.4,3.2,0.4,4.8,0C22.4,27.4,21.6,25.8,20.4,24.5 M20.4,16.3c1.2-1.3,2-2.9,2.4-4.6c-1.6-0.4-3.2-0.4-4.8,0
	C18.4,13.4,19.2,15,20.4,16.3"/>
<path class="st2" d="M28.5,8.9c2-1.3,4.1-2.3,6.4-2.9c-0.6,2.3-1.6,4.4-2.9,6.4C31,11,29.9,9.8,28.5,8.9 M22.9,6.6
	C22.4,4.3,21.6,2,20.4,0c-1.2,2-2,4.3-2.4,6.6c0.8-0.1,1.6-0.2,2.5-0.2C21.3,6.3,22.1,6.4,22.9,6.6 M28.5,32c2,1.3,4.1,2.3,6.4,2.9
	c-0.6-2.3-1.6-4.4-2.9-6.4C31,29.9,29.9,31,28.5,32 M6.6,18C4.3,18.5,2,19.3,0,20.4c2,1.2,4.3,2,6.6,2.5C6.3,21.3,6.3,19.6,6.6,18
	 M34.3,22.9c2.3-0.5,4.5-1.3,6.6-2.5c-2-1.1-4.3-2-6.6-2.4C34.6,19.6,34.6,21.3,34.3,22.9 M12.4,9c-2-1.3-4.1-2.3-6.4-3
	c0.6,2.3,1.6,4.4,2.9,6.4C9.8,11,11,9.8,12.4,9 M18,34.3c0.5,2.3,1.3,4.5,2.5,6.6c1.2-2,2-4.3,2.5-6.6C21.3,34.6,19.6,34.6,18,34.3
	 M8.9,28.5c-1.3,2-2.3,4.1-2.9,6.4c2.3-0.6,4.4-1.6,6.4-2.9C11,31,9.8,29.9,8.9,28.5"/>
<path class="st1" d="M23.2,31.8c0,0.8-0.1,1.7-0.2,2.5c-1.7,0.3-3.3,0.3-5,0c-0.2-0.8-0.2-1.7-0.2-2.5c0-0.9,0.1-1.8,0.3-2.7
	c1.6,0.4,3.2,0.4,4.8,0C23,30,23.1,30.9,23.2,31.8 M29.1,18c0.4,1.6,0.4,3.2,0,4.8c0.9,0.2,1.8,0.3,2.7,0.3c0.8,0,1.7-0.1,2.5-0.2
	c0.3-1.6,0.3-3.3,0-4.9c-0.8-0.2-1.7-0.2-2.5-0.2C30.9,17.7,30,17.8,29.1,18 M28.3,24.9c-0.8,1.4-2,2.6-3.4,3.4
	c0.5,0.8,1,1.5,1.7,2.1c0.6,0.6,1.3,1.1,2,1.6c1.4-1,2.5-2.1,3.5-3.5c-0.5-0.7-1-1.4-1.6-2C29.8,25.9,29.1,25.3,28.3,24.9
	 M11.8,22.8c-0.4-1.6-0.4-3.2,0-4.8c-0.9-0.2-1.8-0.3-2.7-0.3c-0.9,0-1.7,0.1-2.5,0.3c-0.3,1.6-0.3,3.3,0,5c0.8,0.2,1.7,0.2,2.5,0.2
	C10,23.2,10.9,23.1,11.8,22.8 M24.9,12.6c1.4,0.8,2.6,2,3.4,3.4c0.8-0.5,1.5-1,2.1-1.7c0.6-0.6,1.1-1.3,1.6-2
	c-1-1.4-2.1-2.5-3.5-3.5c-0.7,0.5-1.4,1-2,1.6C25.9,11.1,25.3,11.8,24.9,12.6 M18,11.7c1.6-0.4,3.2-0.4,4.8,0
	c0.2-0.9,0.3-1.8,0.3-2.7c0-0.8-0.1-1.7-0.2-2.5c-1.7-0.3-3.3-0.3-5,0c-0.2,0.8-0.2,1.7-0.2,2.5C17.6,10,17.8,10.9,18,11.7 M12.6,16
	c0.8-1.4,2-2.6,3.4-3.4c-0.5-0.8-1-1.5-1.7-2.1c-0.6-0.6-1.3-1.1-2-1.6c-1.4,1-2.5,2.1-3.5,3.5c0.5,0.7,1,1.4,1.6,2
	C11.1,15,11.8,15.5,12.6,16 M16,28.3c-1.4-0.8-2.6-2-3.4-3.4c-0.8,0.5-1.5,1-2.1,1.7c-0.6,0.6-1.1,1.3-1.6,2c1,1.4,2.1,2.5,3.5,3.5
	c0.7-0.5,1.4-1,2-1.6C15,29.8,15.6,29.1,16,28.3"/>
</svg>
