<svg version="1.0" xmlns="http://www.w3.org/2000/svg"
 width="136.000000pt" height="43.000000pt" viewBox="0 0 136.000000 43.000000"
 preserveAspectRatio="xMidYMid meet">
<metadata>
Created by potrace 1.10, written by Peter Selinger 2001-2011
</metadata>
<g transform="translate(0.000000,43.000000) scale(0.100000,-0.100000)"
fill="#000000" stroke="none">
<path d="M186 359 c-10 -34 -4 -94 9 -94 20 0 27 49 12 85 l-14 35 -7 -26z"/>
<path d="M90 319 c0 -14 55 -69 69 -69 27 0 2 48 -36 68 -27 15 -33 15 -33 1z"/>
<path d="M249 301 c-30 -30 -37 -51 -18 -51 14 0 69 55 69 69 0 19 -21 12 -51
-18z"/>
<path d="M940 250 c0 -47 4 -80 10 -80 6 0 10 33 10 80 0 47 -4 80 -10 80 -6
0 -10 -33 -10 -80z"/>
<path d="M410 225 c0 -42 3 -55 15 -55 12 0 15 13 15 55 0 42 -3 55 -15 55
-12 0 -15 -13 -15 -55z"/>
<path d="M464 224 c-1 -39 2 -54 12 -54 8 0 14 15 16 43 2 29 8 42 18 42 10 0
16 -13 18 -42 2 -29 8 -43 18 -43 16 0 19 45 4 84 -7 21 -15 25 -47 24 l-38 0
-1 -54z"/>
<path d="M581 233 c11 -27 24 -51 28 -55 4 -5 19 17 34 47 21 43 24 55 12 55
-8 0 -21 -14 -28 -32 l-13 -32 -13 32 c-7 18 -19 32 -27 32 -10 0 -9 -11 7
-47z"/>
<path d="M680 248 c0 -18 -3 -43 -6 -55 -5 -17 -2 -23 10 -23 13 0 16 11 16
55 0 30 -4 55 -10 55 -5 0 -10 -15 -10 -32z"/>
<path d="M727 273 c-15 -15 -6 -44 18 -55 28 -12 23 -32 -6 -25 -12 3 -19 0
-19 -9 0 -15 27 -18 54 -8 24 9 19 36 -11 61 l-28 22 28 1 c15 0 27 5 27 10 0
11 -53 14 -63 3z"/>
<path d="M820 265 c-7 -8 -12 -26 -12 -40 0 -38 19 -55 63 -53 l39 1 0 52 0
52 -39 1 c-24 1 -44 -4 -51 -13z m64 -27 c16 -26 -16 -57 -38 -38 -17 13 -21
42 -9 54 11 11 35 3 47 -16z"/>
<path d="M990 225 c0 -37 4 -55 13 -55 8 0 12 18 12 55 0 37 -4 55 -12 55 -9
0 -13 -18 -13 -55z"/>
<path d="M1043 254 c-15 -24 -15 -29 -2 -53 12 -20 23 -26 46 -25 23 1 30 -2
26 -12 -3 -8 -18 -14 -33 -14 -33 0 -48 -15 -24 -24 53 -20 84 14 84 94 l0 60
-40 0 c-32 0 -43 -5 -57 -26z m66 -13 c14 -24 -8 -55 -32 -45 -17 6 -24 44
-10 57 12 13 32 7 42 -12z"/>
<path d="M1170 223 c0 -63 17 -72 22 -10 2 29 8 42 18 42 10 0 16 -13 18 -42
2 -29 8 -43 18 -43 18 0 20 83 1 98 -7 6 -27 10 -45 10 -32 -1 -32 -1 -32 -55z"/>
<path d="M70 238 c-31 -9 -33 -11 -15 -19 29 -11 93 -11 100 1 5 8 -39 34 -48
29 -1 0 -18 -5 -37 -11z"/>
<path d="M252 239 c-34 -13 -17 -29 31 -29 53 0 80 15 46 25 -46 13 -54 13
-77 4z"/>
<path d="M116 169 c-44 -52 -29 -67 23 -23 33 27 41 54 17 54 -8 0 -26 -14
-40 -31z"/>
<path d="M220 189 c0 -14 55 -69 69 -69 20 0 11 26 -17 53 -29 28 -52 35 -52
16z"/>
<path d="M187 184 c-10 -10 -9 -86 2 -102 6 -10 11 -5 20 19 6 17 11 37 11 44
0 17 -25 47 -33 39z"/>
<path d="M410 80 c0 -35 4 -37 31 -11 24 22 18 41 -12 41 -14 0 -19 -7 -19
-30z"/>
<path d="M470 81 c0 -31 14 -42 23 -18 4 9 6 9 6 0 1 -7 5 -13 10 -13 6 0 9
12 8 28 -2 20 -8 28 -25 30 -19 3 -22 -1 -22 -27z"/>
<path d="M534 95 c-9 -23 3 -45 25 -45 23 0 35 28 20 46 -15 18 -38 18 -45 -1z"/>
<path d="M603 80 c14 -36 23 -38 31 -7 9 33 7 44 -5 27 -8 -11 -12 -12 -16 -2
-11 27 -21 10 -10 -18z"/>
<path d="M688 80 c-4 -27 -2 -31 16 -28 26 4 30 51 5 56 -12 2 -18 -6 -21 -28z"/>
<path d="M750 80 c0 -25 4 -30 23 -29 16 1 18 2 5 6 -10 2 -18 8 -18 13 0 5 8
11 18 13 14 4 14 5 -3 7 -20 1 -20 1 0 10 19 8 19 9 -2 9 -19 1 -23 -4 -23
-29z"/>
<path d="M802 80 c-1 -30 12 -41 21 -17 4 9 8 8 16 -3 8 -12 11 -8 11 18 0 27
-4 32 -23 32 -20 0 -24 -5 -25 -30z"/>
</g>
</svg>